<svg width="101" height="23" viewBox="0 0 101 23" fill="none" xmlns="http://www.w3.org/2000/svg">
<path d="M22.685 16.0621L20.3226 5.43109H22.058L23.2684 11.3081L23.8517 14.3268H23.9538L26.1704 5.43109H28.1829L30.4286 14.3413H30.5307L31.0849 11.3226L32.2807 5.43109H34.0161L31.6536 16.0621H29.4662L27.2204 7.4873H27.1329L24.8725 16.0621H22.685ZM35.1978 16.0621V5.43109H36.6852V9.87892H36.7727C37.2248 8.78519 38.2456 8.23104 39.3831 8.23104C40.9581 8.23104 42.1393 9.1206 42.1393 11.4831V16.0621H40.6372V11.7893C40.6372 10.2143 40.0685 9.4706 38.8435 9.4706C37.5165 9.4706 36.6852 10.5206 36.6852 11.8476V16.0621H35.1978ZM47.4218 16.1934C45.1614 16.1934 43.6448 14.6476 43.6448 12.2268C43.6448 9.84975 45.0885 8.23104 47.4218 8.23104C49.6676 8.23104 51.1842 9.76226 51.1842 12.2122C51.1842 14.5747 49.7405 16.1934 47.4218 16.1934ZM47.4218 14.9392C48.7634 14.9392 49.653 13.9622 49.653 12.2122C49.653 10.4768 48.8072 9.4706 47.4218 9.4706C46.0801 9.4706 45.176 10.4477 45.176 12.2268C45.176 13.9476 46.051 14.9392 47.4218 14.9392ZM57.0247 16.0621L55.056 8.3477H56.6018L58.1184 14.5601H58.1914L59.6205 8.3477H61.283L62.7558 14.5747H62.7996L64.3162 8.3477H65.7891L63.8204 16.0621H61.8517L60.4226 10.2581H60.3642L58.9788 16.0621H57.0247ZM70.0643 16.1934C67.7456 16.1934 66.3311 14.6184 66.3311 12.2414C66.3311 9.80601 67.7456 8.23104 70.006 8.23104C72.5435 8.23104 73.7684 10.0831 73.5351 12.5039H67.8186C67.8477 14.0934 68.7227 14.9976 70.0643 14.9976C71.0997 14.9976 71.8726 14.4872 72.0622 13.6851H73.4914C73.2872 15.2017 71.8872 16.1934 70.0643 16.1934ZM69.9914 9.41226C68.781 9.41226 67.9644 10.1852 67.8477 11.4393H72.0622C72.0185 10.0102 71.1289 9.41226 69.9914 9.41226ZM81.0449 16.1934C79.1637 16.1934 77.895 14.7788 77.895 12.1976C77.895 9.61643 79.1637 8.21645 81.0449 8.21645C82.3428 8.21645 83.3053 8.87269 83.6699 9.86434H83.7574L83.8157 8.3477H85.2594V16.0621H83.7574V14.5309H83.6699C83.3053 15.5226 82.3428 16.1934 81.0449 16.1934ZM81.5699 14.9538C82.9991 14.9538 83.7428 13.8309 83.7428 12.6351V11.7601C83.7428 10.5789 82.9991 9.44143 81.5699 9.44143C80.2866 9.44143 79.4408 10.3747 79.4408 12.1976C79.4408 14.0059 80.2866 14.9538 81.5699 14.9538ZM87.3635 16.0621V8.3477H88.7051L88.778 9.71851H88.851C89.1864 8.72686 90.0614 8.24562 91.0822 8.24562C91.2572 8.24562 91.403 8.2602 91.5342 8.27479V9.68934C91.4176 9.67476 91.2426 9.67476 91.0676 9.67476C89.6968 9.67476 88.9239 10.3893 88.851 11.6581V16.0621H87.3635ZM95.8268 16.1934C93.5081 16.1934 92.0935 14.6184 92.0935 12.2414C92.0935 9.80601 93.5081 8.23104 95.7685 8.23104C98.3059 8.23104 99.5309 10.0831 99.2976 12.5039H93.581C93.6102 14.0934 94.4851 14.9976 95.8268 14.9976C96.8622 14.9976 97.6351 14.4872 97.8247 13.6851H99.2538C99.0496 15.2017 97.6497 16.1934 95.8268 16.1934ZM95.7539 9.41226C94.5435 9.41226 93.7268 10.1852 93.6102 11.4393H97.8247C97.7809 10.0102 96.8913 9.41226 95.7539 9.41226Z" fill="url(#paint0_linear_77_312)"/>
<path d="M13.7577 5.49496H11.6131V4.7801C11.6131 4.59051 11.5378 4.40868 11.4037 4.27462C11.2697 4.14056 11.0878 4.06525 10.8982 4.06525H3.74969C3.5601 4.06525 3.37827 4.14056 3.24421 4.27462C3.11015 4.40868 3.03484 4.59051 3.03484 4.7801V5.49496H0.89027C0.700679 5.49496 0.518853 5.57027 0.384791 5.70433C0.25073 5.8384 0.175415 6.02022 0.175415 6.20981V8.35438C0.175415 9.11274 0.476675 9.84005 1.01292 10.3763C1.54917 10.9125 2.27647 11.2138 3.03484 11.2138H4.13571C4.78233 11.9352 5.65411 12.4164 6.60911 12.5792V14.0732H5.89426C5.32548 14.0732 4.78 14.2992 4.37782 14.7014C3.97564 15.1035 3.74969 15.649 3.74969 16.2178V17.6475C3.74969 17.8371 3.82501 18.0189 3.95907 18.153C4.09313 18.287 4.27496 18.3624 4.46455 18.3624H10.1834C10.373 18.3624 10.5548 18.287 10.6889 18.153C10.8229 18.0189 10.8982 17.8371 10.8982 17.6475V16.2178C10.8982 15.649 10.6723 15.1035 10.2701 14.7014C9.86793 14.2992 9.32245 14.0732 8.75368 14.0732H8.03882V12.5792C8.99383 12.4164 9.86561 11.9352 10.5122 11.2138H11.6131C12.3715 11.2138 13.0988 10.9125 13.635 10.3763C14.1713 9.84005 14.4725 9.11274 14.4725 8.35438V6.20981C14.4725 6.02022 14.3972 5.8384 14.2631 5.70433C14.1291 5.57027 13.9473 5.49496 13.7577 5.49496ZM3.03484 9.78409C2.65565 9.78409 2.292 9.63346 2.02388 9.36534C1.75576 9.09721 1.60513 8.73356 1.60513 8.35438V6.92467H3.03484V8.35438C3.03641 8.8417 3.12102 9.32519 3.28504 9.78409H3.03484ZM8.75368 15.5029C8.94327 15.5029 9.1251 15.5782 9.25916 15.7123C9.39322 15.8464 9.46853 16.0282 9.46853 16.2178V16.9326H5.1794V16.2178C5.1794 16.0282 5.25472 15.8464 5.38878 15.7123C5.52284 15.5782 5.70467 15.5029 5.89426 15.5029H8.75368ZM10.1834 8.35438C10.1834 9.11274 9.88213 9.84005 9.34589 10.3763C8.80964 10.9125 8.08233 11.2138 7.32397 11.2138C6.5656 11.2138 5.8383 10.9125 5.30205 10.3763C4.76581 9.84005 4.46455 9.11274 4.46455 8.35438V5.49496H10.1834V8.35438ZM13.0428 8.35438C13.0428 8.73356 12.8922 9.09721 12.6241 9.36534C12.3559 9.63346 11.9923 9.78409 11.6131 9.78409H11.3629C11.5269 9.32519 11.6115 8.8417 11.6131 8.35438V6.92467H13.0428V8.35438Z" fill="url(#paint1_linear_77_312)"/>
<defs>
<linearGradient id="paint0_linear_77_312" x1="8.76277" y1="0.0621331" x2="53.6691" y2="97.1265" gradientUnits="userSpaceOnUse">
<stop stop-color="#41B03F"/>
<stop offset="1" stop-color="#E09607"/>
</linearGradient>
<linearGradient id="paint1_linear_77_312" x1="56.2206" y1="36.9486" x2="58.854" y2="2.39667" gradientUnits="userSpaceOnUse">
<stop stop-color="#41B03F"/>
<stop offset="1" stop-color="#41B03F"/>
</linearGradient>
</defs>
</svg>
